<mxfile host="app.diagrams.net" agent="Mozilla/5.0 (Windows NT 10.0; Win64; x64) AppleWebKit/537.36 (KHTML, like Gecko) Chrome/135.0.0.0 Safari/537.36 Edg/135.0.0.0" version="26.2.12">
  <diagram name="Страница — 1" id="I0iQMOSNTT2Q24WO4q-i">
    <mxGraphModel dx="3381" dy="950" grid="1" gridSize="10" guides="1" tooltips="1" connect="1" arrows="1" fold="1" page="1" pageScale="1" pageWidth="827" pageHeight="1169" math="0" shadow="0">
      <root>
        <mxCell id="0" />
        <mxCell id="1" parent="0" />
        <mxCell id="9G_RmUNZeqF7-nl-Zy1j-62" value="" style="rounded=0;whiteSpace=wrap;html=1;direction=south;" vertex="1" parent="1">
          <mxGeometry x="-220" y="40" width="270" height="490" as="geometry" />
        </mxCell>
        <mxCell id="9G_RmUNZeqF7-nl-Zy1j-2" value="" style="rounded=0;whiteSpace=wrap;html=1;direction=south;" vertex="1" parent="1">
          <mxGeometry x="910" y="85" width="250" height="350" as="geometry" />
        </mxCell>
        <mxCell id="9G_RmUNZeqF7-nl-Zy1j-3" value="" style="rounded=0;whiteSpace=wrap;html=1;direction=south;" vertex="1" parent="1">
          <mxGeometry x="550" y="70" width="180" height="450" as="geometry" />
        </mxCell>
        <mxCell id="9G_RmUNZeqF7-nl-Zy1j-4" value="Api" style="text;html=1;align=center;verticalAlign=middle;whiteSpace=wrap;rounded=0;" vertex="1" parent="1">
          <mxGeometry x="1015" y="400" width="60" height="30" as="geometry" />
        </mxCell>
        <mxCell id="9G_RmUNZeqF7-nl-Zy1j-5" value="Customers/Sellers api" style="rounded=1;whiteSpace=wrap;html=1;" vertex="1" parent="1">
          <mxGeometry x="980" y="140" width="130" height="60" as="geometry" />
        </mxCell>
        <mxCell id="9G_RmUNZeqF7-nl-Zy1j-6" value="Products api" style="rounded=1;whiteSpace=wrap;html=1;" vertex="1" parent="1">
          <mxGeometry x="980" y="230" width="130" height="60" as="geometry" />
        </mxCell>
        <mxCell id="9G_RmUNZeqF7-nl-Zy1j-7" value="Sales api" style="rounded=1;whiteSpace=wrap;html=1;" vertex="1" parent="1">
          <mxGeometry x="980" y="320" width="130" height="60" as="geometry" />
        </mxCell>
        <mxCell id="9G_RmUNZeqF7-nl-Zy1j-8" value="Источники данных" style="text;html=1;align=center;verticalAlign=middle;whiteSpace=wrap;rounded=0;" vertex="1" parent="1">
          <mxGeometry x="605" y="480" width="60" height="30" as="geometry" />
        </mxCell>
        <mxCell id="9G_RmUNZeqF7-nl-Zy1j-9" value="PostgreSQL" style="shape=cylinder3;whiteSpace=wrap;html=1;boundedLbl=1;backgroundOutline=1;size=15;" vertex="1" parent="1">
          <mxGeometry x="605" y="100" width="70" height="80" as="geometry" />
        </mxCell>
        <mxCell id="9G_RmUNZeqF7-nl-Zy1j-10" value="MongoDB" style="shape=cylinder3;whiteSpace=wrap;html=1;boundedLbl=1;backgroundOutline=1;size=15;" vertex="1" parent="1">
          <mxGeometry x="605" y="230" width="70" height="80" as="geometry" />
        </mxCell>
        <mxCell id="9G_RmUNZeqF7-nl-Zy1j-11" value="Kafka" style="shape=cylinder3;whiteSpace=wrap;html=1;boundedLbl=1;backgroundOutline=1;size=15;direction=north;" vertex="1" parent="1">
          <mxGeometry x="590" y="365" width="120" height="65" as="geometry" />
        </mxCell>
        <mxCell id="9G_RmUNZeqF7-nl-Zy1j-12" style="edgeStyle=orthogonalEdgeStyle;rounded=0;orthogonalLoop=1;jettySize=auto;html=1;exitX=0;exitY=0.5;exitDx=0;exitDy=0;entryX=1;entryY=0.5;entryDx=0;entryDy=0;entryPerimeter=0;" edge="1" parent="1" source="9G_RmUNZeqF7-nl-Zy1j-5" target="9G_RmUNZeqF7-nl-Zy1j-9">
          <mxGeometry relative="1" as="geometry" />
        </mxCell>
        <mxCell id="9G_RmUNZeqF7-nl-Zy1j-13" style="edgeStyle=orthogonalEdgeStyle;rounded=0;orthogonalLoop=1;jettySize=auto;html=1;exitX=0;exitY=0.5;exitDx=0;exitDy=0;entryX=1;entryY=0.5;entryDx=0;entryDy=0;entryPerimeter=0;" edge="1" parent="1" source="9G_RmUNZeqF7-nl-Zy1j-6" target="9G_RmUNZeqF7-nl-Zy1j-10">
          <mxGeometry relative="1" as="geometry" />
        </mxCell>
        <mxCell id="9G_RmUNZeqF7-nl-Zy1j-20" style="edgeStyle=orthogonalEdgeStyle;rounded=0;orthogonalLoop=1;jettySize=auto;html=1;exitX=0;exitY=0.5;exitDx=0;exitDy=0;entryX=0.5;entryY=1;entryDx=0;entryDy=0;entryPerimeter=0;" edge="1" parent="1" source="9G_RmUNZeqF7-nl-Zy1j-7" target="9G_RmUNZeqF7-nl-Zy1j-11">
          <mxGeometry relative="1" as="geometry" />
        </mxCell>
        <mxCell id="9G_RmUNZeqF7-nl-Zy1j-34" value="" style="rounded=1;whiteSpace=wrap;html=1;" vertex="1" parent="1">
          <mxGeometry x="255" y="420" width="120" height="60" as="geometry" />
        </mxCell>
        <mxCell id="9G_RmUNZeqF7-nl-Zy1j-37" value="" style="rounded=0;whiteSpace=wrap;html=1;direction=south;" vertex="1" parent="1">
          <mxGeometry x="202.5" y="310" width="227.5" height="280" as="geometry" />
        </mxCell>
        <mxCell id="9G_RmUNZeqF7-nl-Zy1j-38" value="Python-service" style="rounded=1;whiteSpace=wrap;html=1;" vertex="1" parent="1">
          <mxGeometry x="245" y="385" width="120" height="60" as="geometry" />
        </mxCell>
        <mxCell id="9G_RmUNZeqF7-nl-Zy1j-41" style="edgeStyle=orthogonalEdgeStyle;rounded=0;orthogonalLoop=1;jettySize=auto;html=1;exitX=0.5;exitY=0;exitDx=0;exitDy=0;exitPerimeter=0;entryX=1;entryY=0.5;entryDx=0;entryDy=0;" edge="1" parent="1" source="9G_RmUNZeqF7-nl-Zy1j-11" target="9G_RmUNZeqF7-nl-Zy1j-38">
          <mxGeometry relative="1" as="geometry" />
        </mxCell>
        <mxCell id="9G_RmUNZeqF7-nl-Zy1j-42" value="Streaming" style="text;html=1;align=center;verticalAlign=middle;whiteSpace=wrap;rounded=0;" vertex="1" parent="1">
          <mxGeometry x="275" y="555" width="60" height="30" as="geometry" />
        </mxCell>
        <mxCell id="9G_RmUNZeqF7-nl-Zy1j-45" value="Stage слой" style="text;html=1;align=center;verticalAlign=middle;whiteSpace=wrap;rounded=0;" vertex="1" parent="1">
          <mxGeometry x="-160" y="500" width="60" height="30" as="geometry" />
        </mxCell>
        <mxCell id="9G_RmUNZeqF7-nl-Zy1j-73" style="edgeStyle=orthogonalEdgeStyle;rounded=0;orthogonalLoop=1;jettySize=auto;html=1;exitX=0;exitY=0;exitDx=0;exitDy=56.25;exitPerimeter=0;entryX=1;entryY=0.75;entryDx=0;entryDy=0;" edge="1" parent="1" source="9G_RmUNZeqF7-nl-Zy1j-46" target="9G_RmUNZeqF7-nl-Zy1j-71">
          <mxGeometry relative="1" as="geometry" />
        </mxCell>
        <mxCell id="9G_RmUNZeqF7-nl-Zy1j-46" value="ClickHouse" style="shape=cylinder3;whiteSpace=wrap;html=1;boundedLbl=1;backgroundOutline=1;size=15;" vertex="1" parent="1">
          <mxGeometry x="-150" y="375" width="70" height="85" as="geometry" />
        </mxCell>
        <mxCell id="9G_RmUNZeqF7-nl-Zy1j-47" style="edgeStyle=orthogonalEdgeStyle;rounded=0;orthogonalLoop=1;jettySize=auto;html=1;exitX=0;exitY=0.5;exitDx=0;exitDy=0;entryX=1;entryY=0.5;entryDx=0;entryDy=0;entryPerimeter=0;" edge="1" parent="1" source="9G_RmUNZeqF7-nl-Zy1j-38" target="9G_RmUNZeqF7-nl-Zy1j-46">
          <mxGeometry relative="1" as="geometry" />
        </mxCell>
        <mxCell id="9G_RmUNZeqF7-nl-Zy1j-49" value="" style="rounded=0;whiteSpace=wrap;html=1;direction=south;" vertex="1" parent="1">
          <mxGeometry x="210" y="30" width="190" height="250" as="geometry" />
        </mxCell>
        <mxCell id="9G_RmUNZeqF7-nl-Zy1j-50" value="DAG" style="rounded=1;whiteSpace=wrap;html=1;" vertex="1" parent="1">
          <mxGeometry x="240" y="50" width="120" height="60" as="geometry" />
        </mxCell>
        <mxCell id="9G_RmUNZeqF7-nl-Zy1j-51" value="DAG" style="rounded=1;whiteSpace=wrap;html=1;" vertex="1" parent="1">
          <mxGeometry x="240" y="150" width="120" height="60" as="geometry" />
        </mxCell>
        <mxCell id="9G_RmUNZeqF7-nl-Zy1j-53" value="Batch&lt;div&gt;(Airflow)&lt;/div&gt;" style="text;html=1;align=center;verticalAlign=middle;whiteSpace=wrap;rounded=0;" vertex="1" parent="1">
          <mxGeometry x="270" y="245" width="60" height="30" as="geometry" />
        </mxCell>
        <mxCell id="9G_RmUNZeqF7-nl-Zy1j-54" style="edgeStyle=orthogonalEdgeStyle;rounded=0;orthogonalLoop=1;jettySize=auto;html=1;exitX=0;exitY=0.5;exitDx=0;exitDy=0;exitPerimeter=0;entryX=1;entryY=0.5;entryDx=0;entryDy=0;" edge="1" parent="1" source="9G_RmUNZeqF7-nl-Zy1j-9" target="9G_RmUNZeqF7-nl-Zy1j-50">
          <mxGeometry relative="1" as="geometry" />
        </mxCell>
        <mxCell id="9G_RmUNZeqF7-nl-Zy1j-55" style="edgeStyle=orthogonalEdgeStyle;rounded=0;orthogonalLoop=1;jettySize=auto;html=1;exitX=0;exitY=0.5;exitDx=0;exitDy=0;exitPerimeter=0;entryX=1;entryY=0.5;entryDx=0;entryDy=0;" edge="1" parent="1" source="9G_RmUNZeqF7-nl-Zy1j-10" target="9G_RmUNZeqF7-nl-Zy1j-51">
          <mxGeometry relative="1" as="geometry" />
        </mxCell>
        <mxCell id="9G_RmUNZeqF7-nl-Zy1j-72" style="edgeStyle=orthogonalEdgeStyle;rounded=0;orthogonalLoop=1;jettySize=auto;html=1;exitX=0;exitY=0.5;exitDx=0;exitDy=0;exitPerimeter=0;entryX=1;entryY=0.5;entryDx=0;entryDy=0;" edge="1" parent="1" source="9G_RmUNZeqF7-nl-Zy1j-56" target="9G_RmUNZeqF7-nl-Zy1j-71">
          <mxGeometry relative="1" as="geometry" />
        </mxCell>
        <mxCell id="9G_RmUNZeqF7-nl-Zy1j-56" value="Iceberg (S3)" style="shape=cylinder3;whiteSpace=wrap;html=1;boundedLbl=1;backgroundOutline=1;size=15;" vertex="1" parent="1">
          <mxGeometry x="-160" y="137.5" width="70" height="85" as="geometry" />
        </mxCell>
        <mxCell id="9G_RmUNZeqF7-nl-Zy1j-57" style="edgeStyle=orthogonalEdgeStyle;rounded=0;orthogonalLoop=1;jettySize=auto;html=1;exitX=0;exitY=0.5;exitDx=0;exitDy=0;entryX=0.5;entryY=0;entryDx=0;entryDy=0;entryPerimeter=0;" edge="1" parent="1" source="9G_RmUNZeqF7-nl-Zy1j-50" target="9G_RmUNZeqF7-nl-Zy1j-56">
          <mxGeometry relative="1" as="geometry" />
        </mxCell>
        <mxCell id="9G_RmUNZeqF7-nl-Zy1j-58" style="edgeStyle=orthogonalEdgeStyle;rounded=0;orthogonalLoop=1;jettySize=auto;html=1;exitX=0;exitY=0.5;exitDx=0;exitDy=0;entryX=1;entryY=0.5;entryDx=0;entryDy=0;entryPerimeter=0;" edge="1" parent="1" source="9G_RmUNZeqF7-nl-Zy1j-51" target="9G_RmUNZeqF7-nl-Zy1j-56">
          <mxGeometry relative="1" as="geometry" />
        </mxCell>
        <mxCell id="9G_RmUNZeqF7-nl-Zy1j-59" value="" style="rounded=0;whiteSpace=wrap;html=1;direction=south;" vertex="1" parent="1">
          <mxGeometry x="-710" y="60" width="180" height="480" as="geometry" />
        </mxCell>
        <mxCell id="9G_RmUNZeqF7-nl-Zy1j-60" value="partition by date" style="text;html=1;align=center;verticalAlign=middle;whiteSpace=wrap;rounded=0;" vertex="1" parent="1">
          <mxGeometry x="-90" y="125" width="60" height="30" as="geometry" />
        </mxCell>
        <mxCell id="9G_RmUNZeqF7-nl-Zy1j-64" value="TTL - удаление данных старше 6 месяцев" style="text;html=1;align=center;verticalAlign=middle;whiteSpace=wrap;rounded=0;" vertex="1" parent="1">
          <mxGeometry x="-140" y="320" width="60" height="30" as="geometry" />
        </mxCell>
        <mxCell id="9G_RmUNZeqF7-nl-Zy1j-77" style="edgeStyle=orthogonalEdgeStyle;rounded=0;orthogonalLoop=1;jettySize=auto;html=1;exitX=0;exitY=0.5;exitDx=0;exitDy=0;exitPerimeter=0;entryX=1;entryY=0.5;entryDx=0;entryDy=0;" edge="1" parent="1" source="9G_RmUNZeqF7-nl-Zy1j-65" target="9G_RmUNZeqF7-nl-Zy1j-76">
          <mxGeometry relative="1" as="geometry" />
        </mxCell>
        <mxCell id="9G_RmUNZeqF7-nl-Zy1j-65" value="ClickHouse&lt;div&gt;(снежинка)&lt;/div&gt;" style="shape=cylinder3;whiteSpace=wrap;html=1;boundedLbl=1;backgroundOutline=1;size=15;" vertex="1" parent="1">
          <mxGeometry x="-640" y="250" width="60" height="80" as="geometry" />
        </mxCell>
        <mxCell id="9G_RmUNZeqF7-nl-Zy1j-66" value="DWH" style="text;html=1;align=center;verticalAlign=middle;whiteSpace=wrap;rounded=0;" vertex="1" parent="1">
          <mxGeometry x="-650" y="500" width="60" height="30" as="geometry" />
        </mxCell>
        <mxCell id="9G_RmUNZeqF7-nl-Zy1j-67" value="" style="rounded=0;whiteSpace=wrap;html=1;direction=south;" vertex="1" parent="1">
          <mxGeometry x="-1150" y="50" width="180" height="470" as="geometry" />
        </mxCell>
        <mxCell id="9G_RmUNZeqF7-nl-Zy1j-68" value="ClickHouse&lt;div&gt;(витрины)&lt;/div&gt;" style="shape=cylinder3;whiteSpace=wrap;html=1;boundedLbl=1;backgroundOutline=1;size=15;" vertex="1" parent="1">
          <mxGeometry x="-1100" y="210" width="60" height="80" as="geometry" />
        </mxCell>
        <mxCell id="9G_RmUNZeqF7-nl-Zy1j-69" value="Final" style="text;html=1;align=center;verticalAlign=middle;whiteSpace=wrap;rounded=0;" vertex="1" parent="1">
          <mxGeometry x="-1100" y="480" width="60" height="30" as="geometry" />
        </mxCell>
        <mxCell id="9G_RmUNZeqF7-nl-Zy1j-71" value="DAG" style="rounded=1;whiteSpace=wrap;html=1;" vertex="1" parent="1">
          <mxGeometry x="-435" y="200" width="120" height="60" as="geometry" />
        </mxCell>
        <mxCell id="9G_RmUNZeqF7-nl-Zy1j-74" style="edgeStyle=orthogonalEdgeStyle;rounded=0;orthogonalLoop=1;jettySize=auto;html=1;exitX=0;exitY=0.5;exitDx=0;exitDy=0;entryX=1;entryY=0.5;entryDx=0;entryDy=0;entryPerimeter=0;" edge="1" parent="1" source="9G_RmUNZeqF7-nl-Zy1j-71" target="9G_RmUNZeqF7-nl-Zy1j-65">
          <mxGeometry relative="1" as="geometry" />
        </mxCell>
        <mxCell id="9G_RmUNZeqF7-nl-Zy1j-76" value="DAG" style="rounded=1;whiteSpace=wrap;html=1;" vertex="1" parent="1">
          <mxGeometry x="-910" y="240" width="120" height="60" as="geometry" />
        </mxCell>
        <mxCell id="9G_RmUNZeqF7-nl-Zy1j-78" style="edgeStyle=orthogonalEdgeStyle;rounded=0;orthogonalLoop=1;jettySize=auto;html=1;exitX=0;exitY=0.5;exitDx=0;exitDy=0;entryX=1;entryY=0.5;entryDx=0;entryDy=0;entryPerimeter=0;" edge="1" parent="1" source="9G_RmUNZeqF7-nl-Zy1j-76" target="9G_RmUNZeqF7-nl-Zy1j-68">
          <mxGeometry relative="1" as="geometry" />
        </mxCell>
      </root>
    </mxGraphModel>
  </diagram>
</mxfile>
